<?xml version="1.0" encoding="UTF-8"?>
<!-- Generator: Adobe Illustrator 25.2.1, SVG Export Plug-In . SVG Version: 6.00 Build 0)  -->
<svg xmlns="http://www.w3.org/2000/svg" xmlns:xlink="http://www.w3.org/1999/xlink" version="1.1" id="Layer_1" x="0px" y="0px" viewBox="0 0 182 86" style="enable-background:new 0 0 182 86;" xml:space="preserve">
<style type="text/css">
	.st0{fill:#53423A;}
	.st1{fill:#53423A;stroke:#54423A;stroke-miterlimit:10;}
	.st2{fill:#CDAC89;}
	.st3{fill:#FCF8F7;stroke:#53423A;stroke-width:0.25;stroke-miterlimit:10;}
</style>
<g>
	<rect x="1.5" y="66.3" class="st0" width="176.7" height="11.7"></rect>
	<g>
		<path class="st1" d="M81.3,39.5c0,2.7,0.1,4.7,0.3,5.8h-0.1c-0.2-0.4-0.8-1.3-1.8-2.7L58.9,12.3h-6.9v39.6h5.4V24.1    c0-2.8-0.1-4.7-0.2-5.5h0.2c0.4,0.9,0.8,1.7,1.5,2.6l21.4,30.8h6.5V12.3h-5.4V39.5z"></path>
		<path class="st1" d="M102.8,23c-3.9,0-7.4,0.9-10.4,2.6v4.8c3-2.3,6.3-3.4,9.9-3.4c4.1,0,6.1,2.3,6.1,6.9l-9,1.2    c-6.7,0.9-10.1,3.9-10.1,9.2c0,2.5,0.9,4.5,2.6,6c1.7,1.5,4.1,2.2,7,2.2c4.1,0,7.2-1.7,9.3-5h0.1v4.4h5.3V33.7    C113.7,26.5,110.1,23,102.8,23z M108.4,40.4c0,2.3-0.8,4.2-2.3,5.8c-1.5,1.5-3.4,2.3-5.8,2.3c-1.7,0-3-0.4-4.1-1.3    c-1-0.9-1.5-2-1.5-3.3c0-1.5,0.5-2.7,1.4-3.6c0.9-0.9,2.7-1.4,5.1-1.7l7.1-0.9V40.4z"></path>
		<polygon class="st1" points="134.3,24 122,36.9 121.9,36.9 121.9,12.2 116.5,12.2 116.5,52.2 121.9,52.2 121.9,38.6 122,38.6     134.9,52.2 142.3,52.2 127.5,37.5 141.1,24.1 141.1,24   "></polygon>
		<path class="st1" d="M163.5,40.2c0,2.5-0.7,4.5-2.2,6.1c-1.4,1.6-3.3,2.4-5.7,2.4c-4.7,0-7.1-2.9-7.1-8.6V23.9h-5.3v0.3h0.1    l-0.1,0.1v16.5c0,8,3.6,12,10.8,12c4.2,0,7.3-1.7,9.3-5.1h0.1v4.4h5.4V23.9h-5.4V40.2z"></path>
		<polygon class="st1" points="171.6,12.2 171.6,51.9 177,51.9 177.6,12.2   "></polygon>
	</g>
	<g>
		<g>
			<path class="st0" d="M86.1,54.9v9.6h-1.3v-9.6H86.1z"></path>
			<path class="st0" d="M89.6,59.4c0-0.7,0-1.3-0.1-1.9h1.2l0.1,1.1h0c0.4-0.6,1.2-1.3,2.4-1.3c1,0,2.6,0.6,2.6,2.9v4.1h-1.3v-4     c0-1.1-0.4-2-1.7-2c-0.9,0-1.5,0.6-1.8,1.3c-0.1,0.2-0.1,0.4-0.1,0.6v4.1h-1.3V59.4z"></path>
			<path class="st0" d="M100.7,55.6v2h1.9v0.9h-1.9v3.7c0,0.9,0.3,1.3,1,1.3c0.3,0,0.6,0,0.8-0.1l0.1,0.9c-0.3,0.1-0.7,0.2-1.2,0.2     c-0.6,0-1.1-0.2-1.4-0.5c-0.4-0.4-0.5-1-0.5-1.8v-3.7h-1.1v-0.9h1.1v-1.7L100.7,55.6z"></path>
			<path class="st0" d="M106.1,61.2c0,1.7,1.2,2.4,2.5,2.4c0.9,0,1.5-0.2,2-0.4l0.2,0.9c-0.5,0.2-1.3,0.4-2.4,0.4     c-2.2,0-3.6-1.4-3.6-3.5c0-2.1,1.3-3.7,3.4-3.7c2.4,0,3,2,3,3.2c0,0.3,0,0.4,0,0.6H106.1z M109.9,60.3c0-0.8-0.3-2-1.8-2     c-1.3,0-1.9,1.2-2,2H109.9z"></path>
			<path class="st0" d="M114.1,59.7c0-0.8,0-1.5-0.1-2.1h1.2l0.1,1.3h0c0.3-0.9,1.1-1.5,2-1.5c0.1,0,0.2,0,0.4,0v1.2     c-0.1,0-0.3,0-0.4,0c-0.9,0-1.6,0.7-1.8,1.6c0,0.2-0.1,0.4-0.1,0.6v3.7h-1.3V59.7z"></path>
			<path class="st0" d="M120.3,59.4c0-0.7,0-1.3-0.1-1.9h1.2l0.1,1.1h0c0.4-0.6,1.2-1.3,2.4-1.3c1,0,2.6,0.6,2.6,2.9v4.1h-1.3v-4     c0-1.1-0.4-2-1.7-2c-0.9,0-1.5,0.6-1.8,1.3c-0.1,0.2-0.1,0.4-0.1,0.6v4.1h-1.3V59.4z"></path>
			<path class="st0" d="M133.9,64.4l-0.1-0.9h0c-0.4,0.5-1.2,1-2.2,1c-1.5,0-2.2-1-2.2-2c0-1.7,1.6-2.6,4.4-2.6v-0.1     c0-0.6-0.2-1.6-1.6-1.6c-0.7,0-1.4,0.2-1.9,0.5l-0.3-0.8c0.6-0.4,1.5-0.6,2.4-0.6c2.2,0,2.8,1.4,2.8,2.8v2.6c0,0.6,0,1.2,0.1,1.6     H133.9z M133.7,60.9c-1.4,0-3.1,0.2-3.1,1.5c0,0.8,0.6,1.2,1.2,1.2c1,0,1.6-0.6,1.8-1.1c0-0.1,0.1-0.3,0.1-0.4V60.9z"></path>
			<path class="st0" d="M139.9,55.6v2h1.9v0.9h-1.9v3.7c0,0.9,0.3,1.3,1,1.3c0.3,0,0.6,0,0.8-0.1l0.1,0.9c-0.3,0.1-0.7,0.2-1.2,0.2     c-0.6,0-1.1-0.2-1.4-0.5c-0.4-0.4-0.5-1-0.5-1.8v-3.7h-1.1v-0.9h1.1v-1.7L139.9,55.6z"></path>
			<path class="st0" d="M146,55.6c0,0.4-0.3,0.8-0.8,0.8c-0.5,0-0.8-0.4-0.8-0.8c0-0.4,0.3-0.8,0.8-0.8     C145.7,54.8,146,55.2,146,55.6z M144.5,64.4v-6.9h1.3v6.9H144.5z"></path>
			<path class="st0" d="M155.9,60.9c0,2.5-1.9,3.7-3.6,3.7c-2,0-3.5-1.4-3.5-3.5c0-2.3,1.6-3.6,3.6-3.6     C154.5,57.4,155.9,58.8,155.9,60.9z M150.1,61c0,1.5,0.9,2.6,2.2,2.6c1.3,0,2.2-1.1,2.2-2.7c0-1.2-0.6-2.6-2.2-2.6     C150.8,58.3,150.1,59.7,150.1,61z"></path>
			<path class="st0" d="M158.8,59.4c0-0.7,0-1.3-0.1-1.9h1.2l0.1,1.1h0c0.4-0.6,1.2-1.3,2.4-1.3c1,0,2.6,0.6,2.6,2.9v4.1h-1.3v-4     c0-1.1-0.4-2-1.7-2c-0.9,0-1.5,0.6-1.8,1.3c-0.1,0.2-0.1,0.4-0.1,0.6v4.1h-1.3V59.4z"></path>
			<path class="st0" d="M172.4,64.4l-0.1-0.9h0c-0.4,0.5-1.2,1-2.2,1c-1.5,0-2.2-1-2.2-2c0-1.7,1.6-2.6,4.4-2.6v-0.1     c0-0.6-0.2-1.6-1.6-1.6c-0.7,0-1.4,0.2-1.9,0.5l-0.3-0.8c0.6-0.4,1.5-0.6,2.4-0.6c2.2,0,2.8,1.4,2.8,2.8v2.6c0,0.6,0,1.2,0.1,1.6     H172.4z M172.2,60.9c-1.4,0-3.1,0.2-3.1,1.5c0,0.8,0.6,1.2,1.2,1.2c1,0,1.6-0.6,1.8-1.1c0-0.1,0.1-0.3,0.1-0.4V60.9z"></path>
			<path class="st0" d="M176.8,54.3h1.3v10.1h-1.3V54.3z"></path>
		</g>
	</g>
	<g>
		<polygon class="st2" points="21,10.8 1.9,10.8 1.9,61.3 49.4,61.3 49.4,44.5 22.8,43.1   "></polygon>
		<polygon class="st0" points="22.7,54.9 22.7,46 28.7,54.9 49.6,54.9 49.6,10.8 34.1,10.8 34.1,23.3 25.2,10.8 10.8,10.8     11.5,54.9   "></polygon>
		<polygon class="st0" points="24.8,8 32.4,8 32.4,18.1   "></polygon>
	</g>
	<rect x="171.1" y="11.6" class="st2" width="3.5" height="3.4"></rect>
	<rect x="174.6" y="15" class="st2" width="3.4" height="3.3"></rect>
	<g>
		<g>
			<path class="st3" d="M2.7,73.9L4,73.7c0.2,0.7,0.7,1,1.8,1c0.5,0,0.8-0.1,1.1-0.3c0.2-0.2,0.4-0.4,0.4-0.6c0-0.2-0.1-0.4-0.2-0.5     c-0.1-0.2-0.4-0.3-0.7-0.4l-1.4-0.3c-0.5-0.1-0.8-0.2-1.1-0.4c-0.2-0.1-0.4-0.4-0.5-0.6c-0.1-0.3-0.2-0.6-0.2-0.9     c0-0.6,0.2-1.1,0.7-1.5c0.5-0.4,1.1-0.5,1.8-0.5c0.6,0,1.2,0.1,1.7,0.4s0.8,0.6,0.9,1.1L7,70.4c-0.2-0.5-0.6-0.8-1.3-0.8     c-0.4,0-0.7,0.1-0.9,0.2c-0.2,0.2-0.3,0.4-0.3,0.6c0,0.4,0.3,0.7,1,0.8l1.2,0.3c0.7,0.2,1.2,0.4,1.5,0.8c0.3,0.3,0.4,0.7,0.4,1.1     c0,0.7-0.3,1.2-0.8,1.6c-0.5,0.4-1.2,0.6-2.1,0.6c-0.7,0-1.3-0.1-1.9-0.4C3.2,74.9,2.9,74.5,2.7,73.9z"></path>
			<path class="st3" d="M15,73.2l1.2,0.1c-0.1,0.7-0.4,1.2-0.8,1.7c-0.5,0.4-1.1,0.7-1.9,0.7c-0.7,0-1.2-0.2-1.6-0.5     c-0.4-0.3-0.7-0.7-1-1.3c-0.2-0.5-0.3-1.1-0.3-1.8c0-1,0.3-1.9,0.8-2.5s1.2-1,2.2-1c0.7,0,1.3,0.2,1.8,0.6c0.5,0.4,0.8,1,0.9,1.8     L15,71.2c-0.2-1-0.7-1.5-1.5-1.5c-0.5,0-0.9,0.2-1.1,0.6c-0.3,0.4-0.4,1-0.4,1.8c0,0.8,0.1,1.4,0.4,1.9c0.3,0.4,0.7,0.6,1.2,0.6     c0.4,0,0.7-0.1,1-0.4C14.8,73.9,15,73.6,15,73.2z"></path>
			<path class="st3" d="M23.5,68.8v4.3c0,0.6-0.1,1-0.2,1.4c-0.1,0.3-0.4,0.6-0.8,0.8c-0.4,0.2-0.9,0.3-1.5,0.3     c-0.6,0-1.1-0.1-1.5-0.3c-0.4-0.2-0.7-0.5-0.8-0.8c-0.2-0.3-0.2-0.8-0.2-1.3v-4.4h1.3v4.3c0,0.6,0.1,1,0.4,1.2     c0.3,0.2,0.6,0.3,0.9,0.3c0.4,0,0.7-0.1,1-0.3c0.2-0.2,0.4-0.6,0.4-1.2v-4.3H23.5z"></path>
			<path class="st3" d="M30.7,75.5h-4.5v-6.8h1.4v5.7h3.1V75.5z"></path>
			<path class="st3" d="M34.3,75.5H33v-6.8h3c0.8,0,1.5,0.2,1.9,0.6c0.4,0.4,0.6,0.9,0.6,1.4c0,0.6-0.2,1.1-0.7,1.5s-1,0.6-1.7,0.6     h-1.8V75.5z M34.3,71.8h1.5c0.4,0,0.7-0.1,0.9-0.3c0.2-0.2,0.3-0.4,0.3-0.7c0-0.3-0.1-0.5-0.3-0.7c-0.2-0.2-0.6-0.3-1.1-0.3h-1.4     V71.8z"></path>
			<path class="st3" d="M43.3,75.5h-1.4v-5.7H40v-1h5.3v1h-1.9V75.5z"></path>
			<path class="st3" d="M48.6,75.5h-1.3v-6.8h1.3V75.5z"></path>
			<path class="st3" d="M57,75.5h-1.3L53,71.2c0-0.1-0.1-0.2-0.2-0.3c0-0.1-0.1-0.2-0.2-0.3v4.9h-1.1v-6.8h1.4l2.5,4     c0,0,0.2,0.3,0.5,0.7v-4.7h1V75.5z"></path>
			<path class="st3" d="M65.3,72.1v3.5h-0.6l-0.4-0.9c-0.4,0.7-1.1,1-2,1c-1,0-1.7-0.3-2.2-1c-0.5-0.7-0.7-1.5-0.7-2.4     c0-1,0.3-1.8,0.8-2.5c0.5-0.7,1.3-1,2.3-1c0.7,0,1.3,0.2,1.8,0.6c0.5,0.4,0.8,0.9,0.9,1.5l-1.1,0.2c-0.2-0.8-0.7-1.2-1.5-1.2     c-0.5,0-0.9,0.2-1.3,0.6c-0.3,0.4-0.5,1-0.5,1.8c0,1.7,0.6,2.6,1.7,2.6c0.4,0,0.8-0.1,1.1-0.4c0.3-0.3,0.4-0.7,0.4-1.1h-1.5v-1     H65.3z"></path>
			<path class="st3" d="M72.1,75.5v-6.8h2.7c1,0,1.8,0.3,2.4,1c0.6,0.7,0.9,1.5,0.9,2.4c0,1-0.3,1.8-0.9,2.4c-0.6,0.6-1.5,1-2.6,1     H72.1z M73.4,74.5h1.1c0.6,0,1.1-0.2,1.5-0.6c0.4-0.4,0.6-1,0.6-1.8c0-0.7-0.2-1.2-0.5-1.7c-0.4-0.5-0.8-0.7-1.4-0.7h-1.2V74.5z"></path>
			<path class="st3" d="M86.2,75.5h-1.4l-1.1-2.8h-1.8v2.8h-1.3v-6.8h3.1c0.9,0,1.5,0.2,1.9,0.6c0.4,0.4,0.6,0.8,0.6,1.4     c0,0.9-0.4,1.5-1.3,1.8L86.2,75.5z M81.8,71.8h1.6c0.5,0,0.8-0.1,1.1-0.3c0.2-0.2,0.3-0.4,0.3-0.8c0-0.3-0.1-0.5-0.3-0.7     c-0.2-0.2-0.5-0.3-1-0.3h-1.7V71.8z"></path>
			<path class="st3" d="M93.5,75.5h-4.7v-6.8h4.7v1h-3.4v1.8h2.7v1h-2.7v1.9h3.4V75.5z"></path>
			<path class="st3" d="M101.6,75.5h-1.4l-0.6-1.6h-2.8l-0.6,1.6h-1.1l2.4-6.8h1.6L101.6,75.5z M99.3,73l-1.1-3l-1.1,3H99.3z"></path>
			<path class="st3" d="M110.8,75.5h-1.3v-5.9l-2,5.9h-0.7l-2-5.9v5.9h-1.1v-6.8h2l1.5,4.3l1.5-4.3h2.1V75.5z"></path>
			<path class="st3" d="M113,73.9l1.3-0.3c0.2,0.7,0.7,1,1.8,1c0.5,0,0.8-0.1,1.1-0.3c0.2-0.2,0.4-0.4,0.4-0.6     c0-0.2-0.1-0.4-0.2-0.5c-0.1-0.2-0.4-0.3-0.7-0.4l-1.4-0.3c-0.5-0.1-0.8-0.2-1.1-0.4c-0.2-0.1-0.4-0.4-0.5-0.6     c-0.1-0.3-0.2-0.6-0.2-0.9c0-0.6,0.2-1.1,0.7-1.5c0.5-0.4,1.1-0.5,1.8-0.5c0.6,0,1.2,0.1,1.7,0.4c0.5,0.3,0.8,0.6,0.9,1.1     l-1.2,0.3c-0.2-0.5-0.6-0.8-1.3-0.8c-0.4,0-0.7,0.1-0.9,0.2c-0.2,0.2-0.3,0.4-0.3,0.6c0,0.4,0.3,0.7,1,0.8l1.2,0.3     c0.7,0.2,1.2,0.4,1.5,0.8s0.4,0.7,0.4,1.1c0,0.7-0.3,1.2-0.8,1.6c-0.5,0.4-1.2,0.6-2.1,0.6c-0.7,0-1.3-0.1-1.9-0.4     C113.5,74.9,113.1,74.5,113,73.9z"></path>
			<path class="st3" d="M126.5,75.5h-1.3v-6.8h1.3V75.5z"></path>
			<path class="st3" d="M134.9,75.5h-1.3l-2.7-4.3c0-0.1-0.1-0.2-0.2-0.3c0-0.1-0.1-0.2-0.2-0.3v4.9h-1.1v-6.8h1.4l2.5,4     c0,0,0.2,0.3,0.5,0.7v-4.7h1V75.5z"></path>
			<path class="st3" d="M141,73.9l1.3-0.3c0.2,0.7,0.7,1,1.8,1c0.5,0,0.8-0.1,1.1-0.3c0.2-0.2,0.4-0.4,0.4-0.6     c0-0.2-0.1-0.4-0.2-0.5c-0.1-0.2-0.4-0.3-0.7-0.4l-1.4-0.3c-0.5-0.1-0.8-0.2-1.1-0.4c-0.2-0.1-0.4-0.4-0.5-0.6     c-0.1-0.3-0.2-0.6-0.2-0.9c0-0.6,0.2-1.1,0.7-1.5c0.5-0.4,1.1-0.5,1.8-0.5c0.6,0,1.2,0.1,1.7,0.4c0.5,0.3,0.8,0.6,0.9,1.1     l-1.2,0.3c-0.2-0.5-0.6-0.8-1.3-0.8c-0.4,0-0.7,0.1-0.9,0.2c-0.2,0.2-0.3,0.4-0.3,0.6c0,0.4,0.3,0.7,1,0.8l1.2,0.3     c0.7,0.2,1.2,0.4,1.5,0.8s0.4,0.7,0.4,1.1c0,0.7-0.3,1.2-0.8,1.6s-1.2,0.6-2.1,0.6c-0.7,0-1.3-0.1-1.9-0.4     C141.5,74.9,141.2,74.5,141,73.9z"></path>
			<path class="st3" d="M151.8,75.5h-1.4v-5.7h-1.9v-1h5.3v1h-1.9V75.5z"></path>
			<path class="st3" d="M158.3,75.6c-1,0-1.7-0.3-2.2-1c-0.5-0.7-0.8-1.5-0.8-2.5c0-1,0.3-1.8,0.9-2.5c0.6-0.7,1.3-1,2.3-1     c0.9,0,1.7,0.3,2.2,1c0.5,0.7,0.8,1.5,0.8,2.5c0,1-0.3,1.9-0.9,2.5C160,75.3,159.2,75.6,158.3,75.6z M158.3,74.7     c0.5,0,0.9-0.2,1.2-0.5c0.3-0.4,0.5-1,0.5-2c0-0.8-0.1-1.4-0.4-1.8c-0.3-0.4-0.7-0.7-1.3-0.7c-1.1,0-1.7,0.8-1.7,2.5     c0,0.8,0.1,1.4,0.4,1.9C157.4,74.5,157.8,74.7,158.3,74.7z"></path>
			<path class="st3" d="M169.4,75.5h-1.3l-2.7-4.3c0-0.1-0.1-0.2-0.2-0.3c0-0.1-0.1-0.2-0.2-0.3v4.9h-1.1v-6.8h1.4l2.5,4     c0,0,0.2,0.3,0.5,0.7v-4.7h1V75.5z"></path>
			<path class="st3" d="M177,75.5h-4.7v-6.8h4.7v1h-3.4v1.8h2.7v1h-2.7v1.9h3.4V75.5z"></path>
		</g>
	</g>
</g>
</svg>
